<svg xmlns="http://www.w3.org/2000/svg" xmlns:xlink="http://www.w3.org/1999/xlink" viewBox="0 0 258 258"><defs><style>.cls-1{fill:none;}.cls-2{fill:#050505;}.cls-3{clip-path:url(#clip-path);}.cls-4{fill:#d3d3d3;}</style><clipPath id="clip-path"><rect class="cls-1" x="39" y="32.61" width="180" height="192.78"/></clipPath></defs><g id="图层_2"><g id="图层_2-2"><circle class="cls-2" cx="129" cy="129" r="129"/></g><g id="图层_1-2"><g class="cls-3"><path class="cls-4" d="M42.86,90.16l83.56,45a4.51,4.51,0,0,1,2.57,1.28c1.29,0,2.57,0,2.57-1.28l83.56-45A7.06,7.06,0,0,0,219,83.73c0-2.57-1.29-5.14-3.86-5.14l-83.56-45c-1.28-1.29-3.86-1.29-6.43,0l-82.27,45C40.29,79.88,39,82.45,39,83.73s1.29,5.15,3.86,6.43ZM129,46.45,199.7,85,129,122.3,58.28,83.73Zm83.56,108a6.08,6.08,0,0,0-6.43,6.43v9L129,212.29,51.86,169.87v-9a6.08,6.08,0,0,0-6.43-6.43A6.07,6.07,0,0,0,39,160.87v12.85c0,2.57,1.29,5.15,3.86,5.15l83.56,45a4.5,4.5,0,0,1,2.57,1.29c1.29,0,2.57,0,2.57-1.29l83.56-45c2.57-1.29,3.86-3.86,3.86-5.15V160.87c0-3.86-3.86-6.43-6.43-6.43Zm0-45a6.08,6.08,0,0,0-6.43,6.42v9L129,167.3,51.86,124.87v-9a6.08,6.08,0,0,0-6.43-6.42A6.07,6.07,0,0,0,39,115.87v12.86c0,2.57,1.29,5.14,3.86,5.14l83.56,45c0,1.28,1.28,1.28,2.57,1.28s2.57,0,2.57-1.28l83.56-45c2.57-1.28,3.86-3.86,3.86-5.14V115.87c0-3.85-3.86-6.42-6.43-6.42Z"/></g></g></g></svg>