<svg xmlns="http://www.w3.org/2000/svg" viewBox="0 0 255.12 255.12"><defs><style>.cls-1{fill:#4559a7;}.cls-2,.cls-3{fill:#fff;stroke:#4559a7;stroke-miterlimit:10;}.cls-3{font-size:80px;font-family:Gabriola;}</style></defs><g id="图层_2" data-name="图层 2"><g id="图层_2-2" data-name="图层 2"><rect class="cls-1" width="255.12" height="255.12" rx="5.68"/><path class="cls-2" d="M203.88,168.63c-.55,2.47-1,5-1.38,7.66s-.68,5.24-.94,7.81l1.78.06,1.62,0c.5,0,1,0,1.37,0h1a16.55,16.55,0,0,0,2.91-.21q.09.33.15.6a2.5,2.5,0,0,1,.06.51,1.06,1.06,0,0,1-.71,1.12,6.75,6.75,0,0,1-2.06.25,28,28,0,0,1-2.88-.16c-1.06-.1-2.23-.2-3.49-.29-.14,1.39-.26,2.75-.36,4.07s-.18,2.57-.24,3.74-.1,2.26-.12,3.26,0,1.88,0,2.62a29.52,29.52,0,0,0,.21,3.73,9.33,9.33,0,0,0,.77,2.79,4,4,0,0,0,1.5,1.74,4.39,4.39,0,0,0,2.42.61,8.9,8.9,0,0,0,2.35-.37,18.44,18.44,0,0,0,3-1.19,2,2,0,0,1,.61,1.29c-.81.53-1.62,1-2.44,1.45a22.5,22.5,0,0,1-2.42,1.12,15.66,15.66,0,0,1-2.31.73,9.39,9.39,0,0,1-2.11.25,5.83,5.83,0,0,1-2.39-.48,4.38,4.38,0,0,1-1.88-1.7,10.12,10.12,0,0,1-1.23-3.29,26,26,0,0,1-.44-5.23c0-1.19,0-2.41.06-3.67s.09-2.52.16-3.81.15-2.58.25-3.87.22-2.56.35-3.81c-1,0-2,.06-2.86.13a13.44,13.44,0,0,0-2.25.34.6.6,0,0,1-.06-.27,1,1,0,0,1,.4-.78,4.06,4.06,0,0,1,1.11-.65,9.81,9.81,0,0,1,1.71-.49,17.24,17.24,0,0,1,2.19-.27q.45-4.08,1-7.72t1-6.48a2,2,0,0,1,.36-.84,2.08,2.08,0,0,1,.62-.53,2.46,2.46,0,0,1,.76-.27,4.43,4.43,0,0,1,.8-.08,4.55,4.55,0,0,1,1.16.14A3.94,3.94,0,0,1,203.88,168.63Z"/><path class="cls-2" d="M38.81,48.33q7.75-1.47,16-2.82t16.56-2.38q8.34-1,16.73-1.65t16.59-.62a168.28,168.28,0,0,1,22.16,1.43A97.7,97.7,0,0,1,147,47.12a70.71,70.71,0,0,1,17.4,9.08A54.81,54.81,0,0,1,178,70.34a67.4,67.4,0,0,1,8.83,20A102.23,102.23,0,0,1,190,117.1a123.16,123.16,0,0,1-2.71,26.11,104,104,0,0,1-7.91,23.26A90.58,90.58,0,0,1,166.65,186a78.83,78.83,0,0,1-38.38,24.71,88.22,88.22,0,0,1-24.94,3.41,106.09,106.09,0,0,1-14-1,128.61,128.61,0,0,1-14.79-2.93L60.05,212l-1.32-.15q.51-4.68,1.1-12.42t1.13-18q.55-10.24,1.07-22.81t.91-27q.41-14.46.62-30.5t.22-33.33a58,58,0,0,0-.29-6.15A9.57,9.57,0,0,0,62,57.27a7.16,7.16,0,0,0-3.59-2.64,19.18,19.18,0,0,0-6.48-.88,89.78,89.78,0,0,0-12.38,1.1ZM83,50.75q-.07,3.66-.22,10.91t-.36,16.88q-.23,9.63-.55,21t-.7,23.29q-.36,11.91-.8,23.7t-.88,22.26q-.45,10.49-.92,19t-.92,13.88A88.86,88.86,0,0,0,91,204.23a120.55,120.55,0,0,0,12.05.62,72.79,72.79,0,0,0,22-3.08,56.64,56.64,0,0,0,17.06-8.6A54.74,54.74,0,0,0,154.64,180a74.3,74.3,0,0,0,8.42-16.7A100,100,0,0,0,167.82,144a145,145,0,0,0,1.5-21,114.93,114.93,0,0,0-3.55-29.51A59.34,59.34,0,0,0,154.2,70.38a53.27,53.27,0,0,0-20.91-15.06q-12.88-5.37-31.5-5.38-4.61,0-9.3.22C89.37,50.31,86.2,50.5,83,50.75Z"/><text class="cls-3" transform="translate(191.83 66.09)">s</text></g></g></svg>